HIERARCHY
ROOT Hips
{
	OFFSET 0.000000 8.830580 0.000000
	CHANNELS 6 Xposition Yposition Zposition Zrotation Yrotation Xrotation 
	JOINT Spine
	{
		OFFSET 0.000000 0.010000 0.000000
		CHANNELS 3 Zrotation Yrotation Xrotation
		JOINT Spine1
		{
			OFFSET 0.000000 2.459130 0.000000
			CHANNELS 3 Zrotation Yrotation Xrotation
			JOINT Neck
			{
				OFFSET 0.000000 2.484630 0.000000
				CHANNELS 3 Zrotation Yrotation Xrotation
				JOINT Head_virtual
				{
					OFFSET 0.000000 0.000000 0.000000
					CHANNELS 3 Zrotation Yrotation Xrotation
					JOINT Head
					{
						OFFSET 0.000000 0.927525 0.000000
						CHANNELS 3 Zrotation Yrotation Xrotation
						End Site
						{
							OFFSET 0.000000 0.000000 0.000000
						}
					}
				}
				JOINT LeftUpArm_virtual
				{
					OFFSET 0.000000 0.000000 0.000000
					CHANNELS 3 Zrotation Yrotation Xrotation
					JOINT LeftUpArm
					{
						OFFSET 1.248820 0.000000 0.000000
						CHANNELS 3 Zrotation Yrotation Xrotation
						JOINT LeftForeArm
						{
							OFFSET 2.597580 0.000000 0.000000
							CHANNELS 3 Zrotation Yrotation Xrotation
							JOINT LeftHand
							{
								OFFSET 2.455420 0.000000 0.000000
								CHANNELS 3 Zrotation Yrotation Xrotation
								End Site
								{
									OFFSET 0.000000 0.000000 0.000000
								}
							}
						}
					}
				}
				JOINT RightUpArm_virtual
				{
					OFFSET -0.000000 -0.000000 -0.000000
					CHANNELS 3 Zrotation Yrotation Xrotation
					JOINT RightUpArm
					{
						OFFSET -1.248820 -0.000000 -0.000000
						CHANNELS 3 Zrotation Yrotation Xrotation
						JOINT RightForeArm
						{
							OFFSET -2.597580 -0.000000 -0.000000
							CHANNELS 3 Zrotation Yrotation Xrotation
							JOINT RightHand
							{
								OFFSET -2.455420 -0.000000 -0.000000
								CHANNELS 3 Zrotation Yrotation Xrotation
								End Site
								{
									OFFSET 0.000000 0.000000 0.000000
								}
							}
						}
					}
				}
			}
		}
	}
	JOINT LeftUpLeg
	{
		OFFSET 1.271939 0.000000 0.000000
		CHANNELS 3 Zrotation Yrotation Xrotation
		JOINT LeftLowLeg
		{
			OFFSET 0.000000 -4.342910 0.000000
			CHANNELS 3 Zrotation Yrotation Xrotation
			JOINT LeftFoot
			{
				OFFSET 0.000000 -4.487670 0.000000
				CHANNELS 3 Zrotation Yrotation Xrotation
				JOINT LeftToeBase
				{
					OFFSET 0.000000 0.000000 1.515070
					CHANNELS 3 Zrotation Yrotation Xrotation
					End Site
					{
						OFFSET 0.000000 0.000000 0.000000
					}
				}
			}
		}
	}
	JOINT RightUpLeg
	{
		OFFSET -1.271939 0.000000 0.000000
		CHANNELS 3 Zrotation Yrotation Xrotation
		JOINT RightLowLeg
		{
			OFFSET 0.000000 -4.342910 0.000000
			CHANNELS 3 Zrotation Yrotation Xrotation
			JOINT RightFoot
			{
				OFFSET 0.000000 -4.487670 0.000000
				CHANNELS 3 Zrotation Yrotation Xrotation
				JOINT RightToeBase
				{
					OFFSET 0.000000 0.000000 1.515070
					CHANNELS 3 Zrotation Yrotation Xrotation
					End Site
					{
						OFFSET 0.000000 0.000000 0.000000
					}
				}
			}
		}
	}
}
MOTION
Frames: 17
Frame Time: 0.041667
-17.467030 8.982582 38.227186 -177.385285 -5.997853 -160.422042 6.189493 -0.915024 -33.176976 -2.718875 0.558236 9.079104 0.000000 0.000000 0.000000 10.224983 5.304672 4.164016 -13.144320 -7.292815 -72.033241 -30.011801 0.064622 8.210300 -42.413601 -3.720050 30.575989 0.000000 -21.372900 0.000000 0.953835 9.980540 23.075100 31.223700 -3.197160 2.472400 44.755600 -0.563650 26.702900 0.000000 20.874001 0.000000 8.895080 -10.104400 11.521900 7.668445 -27.217955 -17.218308 0.000000 0.000000 5.686180 0.850691 21.177168 -2.583367 0.000000 0.000000 -11.500100 -0.212517 32.974031 -15.730288 0.000000 0.000000 4.080730 0.698927 -29.657660 2.737548 0.000000 0.000000 -17.528710 
-17.468088 8.982904 38.229053 -177.374314 -5.986219 -160.441055 6.193314 -0.932713 -33.198869 -2.700253 0.553519 9.146310 0.000000 0.000000 0.000000 10.252971 5.249463 4.247236 -13.252807 -7.274527 -71.887592 -29.982100 0.065661 8.291540 -42.422600 -3.768230 30.523010 0.000000 -21.350100 0.000000 0.991077 10.001700 23.084900 31.224501 -3.183430 2.522010 44.712502 -0.543916 26.643700 0.000000 20.935200 0.000000 8.881580 -10.048900 11.455900 7.664238 -27.205227 -17.215712 0.000000 0.000000 5.702760 0.846495 21.167870 -2.583634 0.000000 0.000000 -11.499120 -0.211496 32.992072 -15.741667 0.000000 0.000000 4.111400 0.713801 -29.663539 2.738398 0.000000 0.000000 -17.537340 
-17.469137 8.983204 38.231494 -177.361698 -5.956735 -160.466046 6.186508 -0.947281 -33.208327 -2.649436 0.573983 9.238967 0.000000 0.000000 0.000000 10.232996 5.241663 4.283815 -13.292012 -7.286164 -71.822628 -29.974199 0.036543 8.320730 -42.441700 -3.772120 30.441986 0.000000 -21.337500 0.000000 0.995705 9.942650 23.095100 31.205200 -3.168200 2.500480 44.699001 -0.548025 26.603901 0.000000 20.967300 0.000000 8.918800 -10.065500 11.215400 7.659858 -27.206191 -17.208825 0.000000 0.000000 5.719100 0.817090 21.182350 -2.590860 0.000000 0.000000 -11.477470 -0.214236 33.024299 -15.752276 0.000000 0.000000 4.140330 0.704566 -29.674882 2.750565 0.000000 0.000000 -17.529070 
-17.470433 8.983491 38.234918 -177.353534 -5.909470 -160.492241 6.178531 -0.954657 -33.183401 -2.604153 0.592488 9.308952 0.000000 0.000000 0.000000 10.171427 5.300943 4.313635 -13.278502 -7.308701 -71.827633 -29.975700 0.037445 8.321630 -42.461800 -3.774170 30.394012 0.000000 -21.357500 0.000000 1.000860 9.945590 23.177299 31.189600 -3.136910 2.490480 44.683899 -0.554094 26.591801 0.000000 20.988701 0.000000 9.001510 -10.086300 10.763100 7.637698 -27.176670 -17.201063 0.000000 0.000000 5.738720 0.825355 21.195024 -2.585396 0.000000 0.000000 -11.468010 -0.227178 33.050482 -15.771564 0.000000 0.000000 4.177990 0.722468 -29.657899 2.750216 0.000000 0.000000 -17.531050 
-17.471607 8.983789 38.238263 -177.348094 -5.870995 -160.508805 6.164996 -0.963743 -33.163995 -2.560157 0.618566 9.372261 0.000000 0.000000 0.000000 10.139418 5.330222 4.301989 -13.268089 -7.311852 -71.823354 -29.966299 0.024864 8.325970 -42.498600 -3.762750 30.375000 0.000000 -21.386900 0.000000 1.045120 9.893940 23.178101 31.170099 -3.104960 2.500250 44.689800 -0.553687 26.604401 0.000000 20.983900 0.000000 9.064550 -10.123000 10.816000 7.619329 -27.144264 -17.207720 0.000000 0.000000 5.764050 0.821939 21.191492 -2.581044 0.000000 0.000000 -11.474300 -0.240107 33.051083 -15.789782 0.000000 0.000000 4.198160 0.741998 -29.624502 2.751029 0.000000 0.000000 -17.537300 
-17.472809 8.984167 38.241409 -177.341756 -5.855723 -160.521932 6.153389 -0.968539 -33.142846 -2.531853 0.640440 9.428324 0.000000 0.000000 0.000000 10.143464 5.339549 4.276114 -13.276239 -7.297055 -71.845900 -29.958000 0.009263 8.321270 -42.532200 -3.738990 30.355988 0.000000 -21.432501 0.000000 1.052190 9.884640 23.111401 31.157900 -3.079350 2.520410 44.705700 -0.552675 26.630501 0.000000 20.967899 0.000000 9.087970 -10.142700 11.212800 7.619958 -27.152982 -17.222839 0.000000 0.000000 5.780100 0.829619 21.208998 -2.566544 0.000000 0.000000 -11.499850 -0.235839 33.009716 -15.791227 0.000000 0.000000 4.197040 0.713694 -29.583402 2.781078 0.000000 0.000000 -17.529020 
-17.474114 8.984376 38.244451 -177.335450 -5.840654 -160.528074 6.144885 -0.957626 -33.113019 -2.522088 0.660116 9.452633 0.000000 0.000000 0.000000 10.168077 5.328462 4.248400 -13.279479 -7.281319 -71.872511 -29.948999 0.001396 8.338410 -42.562599 -3.722020 30.355011 0.000000 -21.489201 0.000000 1.059050 9.843110 23.013901 31.150299 -3.059840 2.551470 44.724602 -0.561552 26.691601 0.000000 20.987499 0.000000 9.132570 -10.288400 10.915000 7.621423 -27.154958 -17.236546 0.000000 0.000000 5.783090 0.833320 21.224175 -2.554149 0.000000 0.000000 -11.496700 -0.232770 32.953743 -15.792172 0.000000 0.000000 4.184790 0.707677 -29.520761 2.803954 0.000000 0.000000 -17.539960 
-17.475302 8.984677 38.246992 -177.331621 -5.825219 -160.531664 6.135219 -0.946099 -33.099891 -2.520077 0.684248 9.491993 0.000000 0.000000 0.000000 10.219304 5.294660 4.215796 -13.300624 -7.254470 -71.899547 -29.938000 0.001910 8.341810 -42.600899 -3.710060 30.371002 0.000000 -21.544201 0.000000 1.102390 9.884080 22.942900 31.164700 -3.031190 2.587630 44.724300 -0.566653 26.681999 0.000000 20.992800 0.000000 9.277230 -10.400400 10.519100 7.610599 -27.122720 -17.242655 0.000000 0.000000 5.780580 0.826804 21.200494 -2.540652 0.000000 0.000000 -11.494580 -0.232569 32.904491 -15.792192 0.000000 0.000000 4.168920 0.691347 -29.465744 2.830119 0.000000 0.000000 -17.526470 
-17.476509 8.984968 38.249076 -177.321374 -5.811738 -160.540186 6.131918 -0.922065 -33.099536 -2.528695 0.707739 9.546735 0.000000 0.000000 0.000000 10.271863 5.260651 4.184530 -13.293583 -7.234499 -71.935756 -29.919201 -0.010994 8.338960 -42.655399 -3.701340 30.381989 0.000000 -21.550200 0.000000 1.150700 9.807390 22.768000 31.170799 -3.008150 2.616070 44.753399 -0.566696 26.609501 0.000000 20.948099 0.000000 9.417660 -10.401000 10.439600 7.589431 -27.034176 -17.236434 0.000000 0.000000 5.783520 0.827217 21.112519 -2.536567 0.000000 0.000000 -11.496210 -0.236128 32.905013 -15.795781 0.000000 0.000000 4.164110 0.698065 -29.454733 2.845090 0.000000 0.000000 -17.520350 
-17.477346 8.985119 38.250779 -177.313593 -5.808994 -160.542592 6.125837 -0.912181 -33.096934 -2.526976 0.726058 9.576526 0.000000 0.000000 0.000000 10.303781 5.246880 4.169208 -13.277155 -7.219887 -71.960432 -29.915001 -0.016310 8.348930 -42.687500 -3.717600 30.377991 0.000000 -21.543400 0.000000 1.185690 9.781950 22.780500 31.193300 -3.003700 2.629520 44.737301 -0.573296 26.619400 0.000000 20.960800 0.000000 9.479090 -10.436500 10.124700 7.626250 -27.138791 -17.241919 0.000000 0.000000 5.750340 0.812424 21.215185 -2.520520 0.000000 0.000000 -11.516630 -0.236420 32.889463 -15.807876 0.000000 0.000000 4.171690 0.690483 -29.437939 2.854611 0.000000 0.000000 -17.517830 
-17.478119 8.985290 38.251961 -177.304897 -5.827223 -160.550782 6.115903 -0.914972 -33.106463 -2.511179 0.747865 9.619587 0.000000 0.000000 0.000000 10.349234 5.204073 4.152692 -13.263852 -7.213283 -71.972016 -29.915501 -0.037154 8.369270 -42.723000 -3.732640 30.316010 0.000000 -21.538601 0.000000 1.204800 9.809810 22.762899 31.195999 -3.007220 2.641550 44.752499 -0.562005 26.558399 0.000000 20.938499 0.000000 9.558780 -10.463700 9.773780 7.637868 -27.148138 -17.238867 0.000000 0.000000 5.734690 0.808625 21.201101 -2.513306 0.000000 0.000000 -11.500340 -0.225935 32.875098 -15.803199 0.000000 0.000000 4.168920 0.706603 -29.435521 2.855577 0.000000 0.000000 -17.509730 
-17.478915 8.985352 38.253163 -177.294554 -5.831811 -160.555947 6.108118 -0.911780 -33.108929 -2.495755 0.767693 9.645274 0.000000 0.000000 0.000000 10.378404 5.180940 4.152161 -13.247019 -7.212661 -71.989605 -29.918200 -0.036674 8.388290 -42.757702 -3.749910 30.252014 0.000000 -21.529301 0.000000 1.293210 9.789860 22.756901 31.196100 -3.020600 2.651640 44.764801 -0.547563 26.521700 0.000000 20.918301 0.000000 9.568280 -10.428700 9.487430 7.655742 -27.176683 -17.238871 0.000000 0.000000 5.718720 0.784104 21.210116 -2.518610 0.000000 0.000000 -11.489610 -0.227397 32.891035 -15.814791 0.000000 0.000000 4.180270 0.722185 -29.451304 2.855907 0.000000 0.000000 -17.521010 
-17.480073 8.985534 38.255007 -177.278402 -5.832364 -160.562257 6.104044 -0.906239 -33.114175 -2.474966 0.785324 9.678088 0.000000 0.000000 0.000000 10.402989 5.162063 4.162338 -13.234035 -7.215887 -72.008150 -29.919100 -0.032438 8.398800 -42.802502 -3.781220 30.153015 0.000000 -21.488701 0.000000 1.325390 9.756550 22.601700 31.200899 -3.023860 2.653820 44.764500 -0.545346 26.463900 0.000000 20.914301 0.000000 9.564870 -10.409600 9.548380 7.679362 -27.198752 -17.236142 0.000000 0.000000 5.692230 0.755881 21.206242 -2.517042 0.000000 0.000000 -11.486500 -0.228935 32.903497 -15.836476 0.000000 0.000000 4.202470 0.720192 -29.456327 2.863975 0.000000 0.000000 -17.518530 
-17.481100 8.985595 38.257259 -177.256376 -5.839903 -160.568213 6.103684 -0.903760 -33.114947 -2.450301 0.795213 9.710204 0.000000 0.000000 0.000000 10.422033 5.134245 4.143457 -13.214102 -7.227854 -72.033359 -29.910601 -0.031298 8.394420 -42.848301 -3.809760 30.080994 0.000000 -21.454700 0.000000 1.370830 9.748210 22.542101 31.206301 -3.022380 2.628470 44.752602 -0.557795 26.407000 0.000000 20.937599 0.000000 9.581080 -10.426300 9.682950 7.729619 -27.268410 -17.238519 0.000000 0.000000 5.651140 0.665705 21.218214 -2.538489 0.000000 0.000000 -11.461410 -0.226605 32.917067 -15.864763 0.000000 0.000000 4.231410 0.763334 -29.455144 2.849237 0.000000 0.000000 -17.510310 
-17.481917 8.985883 38.259262 -177.237998 -5.840389 -160.590011 6.103579 -0.905099 -33.120764 -2.424293 0.806837 9.788720 0.000000 0.000000 0.000000 10.406682 5.140788 4.078732 -13.155327 -7.253300 -72.110536 -29.900600 -0.036461 8.345670 -42.877201 -3.814790 30.040009 0.000000 -21.458799 0.000000 1.404470 9.803390 22.594999 31.178499 -3.000430 2.545890 44.783199 -0.596689 26.382900 0.000000 20.936701 0.000000 9.544690 -10.373700 9.798570 7.745111 -27.261099 -17.210763 0.000000 0.000000 5.614310 0.614966 21.160664 -2.537928 0.000000 0.000000 -11.456910 -0.211631 32.917223 -15.874192 0.000000 0.000000 4.267030 0.802774 -29.436485 2.838490 0.000000 0.000000 -17.503610 
-17.482609 8.986736 38.263097 -177.186477 -5.806767 -160.706415 6.101643 -0.883127 -33.004821 -2.350361 0.829480 9.892427 0.000000 0.000000 0.000000 10.366639 5.137721 3.866772 -13.073936 -7.327569 -72.354885 -29.890800 -0.064788 8.225630 -42.887901 -3.776890 30.079987 0.000000 -21.492001 0.000000 1.415100 9.779170 22.662201 31.092100 -2.961090 2.434290 44.850300 -0.651887 26.390200 0.000000 20.955601 0.000000 9.430380 -10.325400 9.833920 7.753945 -27.223451 -17.047013 0.000000 0.000000 5.497980 0.421232 21.002611 -2.562548 0.000000 0.000000 -11.458130 -0.128458 32.938533 -15.819162 0.000000 0.000000 4.346980 0.840464 -29.388701 2.867234 0.000000 0.000000 -17.559290 
-17.482283 8.987279 38.264278 -177.163060 -5.765832 -160.772536 6.096455 -0.867264 -32.937552 -2.318301 0.848299 9.947401 0.000000 0.000000 0.000000 10.396367 5.074810 3.676090 -13.095668 -7.322194 -72.439313 -29.881001 -0.076741 8.197700 -42.875301 -3.766080 30.104004 0.000000 -21.548201 0.000000 1.437710 9.825730 22.580400 31.051599 -2.912130 2.412090 44.875702 -0.678137 26.397200 0.000000 20.965700 0.000000 9.455620 -10.302700 9.846630 7.729127 -27.118209 -16.908971 0.000000 0.000000 5.388810 0.342428 20.824613 -2.544417 0.000000 0.000000 -11.497920 -0.075510 32.932156 -15.779296 0.000000 0.000000 4.396830 0.848602 -29.323605 2.878366 0.000000 0.000000 -17.565960 
